<mxfile host="app.diagrams.net" agent="Mozilla/5.0 (Macintosh; Intel Mac OS X 10_15_7) AppleWebKit/605.1.15 (KHTML, like Gecko) Version/18.3 Safari/605.1.15" version="26.2.13">
  <diagram id="C5RBs43oDa-KdzZeNtuy" name="Page-1">
    <mxGraphModel dx="948" dy="652" grid="1" gridSize="10" guides="1" tooltips="1" connect="1" arrows="1" fold="1" page="1" pageScale="1" pageWidth="827" pageHeight="1169" math="0" shadow="0">
      <root>
        <mxCell id="WIyWlLk6GJQsqaUBKTNV-0" />
        <mxCell id="WIyWlLk6GJQsqaUBKTNV-1" parent="WIyWlLk6GJQsqaUBKTNV-0" />
        <mxCell id="iUWQHkMu8339N5Hj9UHk-88" value="" style="group" vertex="1" connectable="0" parent="WIyWlLk6GJQsqaUBKTNV-1">
          <mxGeometry x="80" y="80" width="190" height="360" as="geometry" />
        </mxCell>
        <mxCell id="iUWQHkMu8339N5Hj9UHk-110" style="edgeStyle=orthogonalEdgeStyle;rounded=0;orthogonalLoop=1;jettySize=auto;html=1;exitX=0.5;exitY=1;exitDx=0;exitDy=0;entryX=0.5;entryY=0;entryDx=0;entryDy=0;" edge="1" parent="iUWQHkMu8339N5Hj9UHk-88" source="iUWQHkMu8339N5Hj9UHk-83" target="iUWQHkMu8339N5Hj9UHk-84">
          <mxGeometry relative="1" as="geometry" />
        </mxCell>
        <mxCell id="iUWQHkMu8339N5Hj9UHk-83" value="&lt;b&gt;Start&lt;/b&gt;" style="rounded=0;whiteSpace=wrap;html=1;fillColor=#d0cee2;strokeColor=#56517e;" vertex="1" parent="iUWQHkMu8339N5Hj9UHk-88">
          <mxGeometry width="190" height="40" as="geometry" />
        </mxCell>
        <mxCell id="iUWQHkMu8339N5Hj9UHk-112" style="edgeStyle=orthogonalEdgeStyle;rounded=0;orthogonalLoop=1;jettySize=auto;html=1;exitX=0.5;exitY=1;exitDx=0;exitDy=0;entryX=0.5;entryY=0;entryDx=0;entryDy=0;" edge="1" parent="iUWQHkMu8339N5Hj9UHk-88" source="iUWQHkMu8339N5Hj9UHk-84" target="iUWQHkMu8339N5Hj9UHk-85">
          <mxGeometry relative="1" as="geometry" />
        </mxCell>
        <mxCell id="iUWQHkMu8339N5Hj9UHk-84" value="&lt;b&gt;Define Paths for Train/Test&lt;/b&gt;" style="rounded=0;whiteSpace=wrap;html=1;fillColor=#d0cee2;strokeColor=#56517e;" vertex="1" parent="iUWQHkMu8339N5Hj9UHk-88">
          <mxGeometry y="80" width="190" height="40" as="geometry" />
        </mxCell>
        <mxCell id="iUWQHkMu8339N5Hj9UHk-109" style="edgeStyle=orthogonalEdgeStyle;rounded=0;orthogonalLoop=1;jettySize=auto;html=1;exitX=0.5;exitY=1;exitDx=0;exitDy=0;entryX=0.5;entryY=0;entryDx=0;entryDy=0;" edge="1" parent="iUWQHkMu8339N5Hj9UHk-88" source="iUWQHkMu8339N5Hj9UHk-85" target="iUWQHkMu8339N5Hj9UHk-86">
          <mxGeometry relative="1" as="geometry" />
        </mxCell>
        <mxCell id="iUWQHkMu8339N5Hj9UHk-85" value="&lt;b&gt;&amp;nbsp;MediaPipe Hands Initialized&amp;nbsp;&lt;/b&gt;" style="rounded=0;whiteSpace=wrap;html=1;fillColor=#d0cee2;strokeColor=#56517e;" vertex="1" parent="iUWQHkMu8339N5Hj9UHk-88">
          <mxGeometry y="160" width="190" height="40" as="geometry" />
        </mxCell>
        <mxCell id="iUWQHkMu8339N5Hj9UHk-113" style="edgeStyle=orthogonalEdgeStyle;rounded=0;orthogonalLoop=1;jettySize=auto;html=1;exitX=0.5;exitY=1;exitDx=0;exitDy=0;entryX=0.5;entryY=0;entryDx=0;entryDy=0;" edge="1" parent="iUWQHkMu8339N5Hj9UHk-88" source="iUWQHkMu8339N5Hj9UHk-86" target="iUWQHkMu8339N5Hj9UHk-87">
          <mxGeometry relative="1" as="geometry" />
        </mxCell>
        <mxCell id="iUWQHkMu8339N5Hj9UHk-86" value="&lt;div&gt;&lt;b&gt;Augment Image (Rotation, Brightness)&lt;br&gt;&lt;/b&gt;&lt;/div&gt;&lt;div&gt;&lt;br&gt;&lt;/div&gt;" style="rounded=0;whiteSpace=wrap;html=1;fillColor=#d0cee2;strokeColor=#56517e;" vertex="1" parent="iUWQHkMu8339N5Hj9UHk-88">
          <mxGeometry y="240" width="190" height="40" as="geometry" />
        </mxCell>
        <mxCell id="iUWQHkMu8339N5Hj9UHk-87" value="&lt;div&gt;&lt;b&gt;Extract Normalized Hand Landmarks (63 pts)&lt;/b&gt;&lt;br&gt;&lt;/div&gt;" style="rounded=0;whiteSpace=wrap;html=1;fillColor=#d0cee2;strokeColor=#56517e;" vertex="1" parent="iUWQHkMu8339N5Hj9UHk-88">
          <mxGeometry y="320" width="190" height="40" as="geometry" />
        </mxCell>
        <mxCell id="iUWQHkMu8339N5Hj9UHk-89" value="" style="group" vertex="1" connectable="0" parent="WIyWlLk6GJQsqaUBKTNV-1">
          <mxGeometry x="319" y="80" width="190" height="360" as="geometry" />
        </mxCell>
        <mxCell id="iUWQHkMu8339N5Hj9UHk-90" value="&lt;div&gt;&lt;b&gt;LSTM(128) → Attention → LSTM(64) → Dense&lt;/b&gt;&lt;br&gt;&lt;/div&gt;" style="rounded=0;whiteSpace=wrap;html=1;fillColor=#d0cee2;strokeColor=#56517e;" vertex="1" parent="iUWQHkMu8339N5Hj9UHk-89">
          <mxGeometry width="190" height="40" as="geometry" />
        </mxCell>
        <mxCell id="iUWQHkMu8339N5Hj9UHk-119" style="edgeStyle=orthogonalEdgeStyle;rounded=0;orthogonalLoop=1;jettySize=auto;html=1;exitX=0.5;exitY=0;exitDx=0;exitDy=0;entryX=0.5;entryY=1;entryDx=0;entryDy=0;" edge="1" parent="iUWQHkMu8339N5Hj9UHk-89" source="iUWQHkMu8339N5Hj9UHk-91" target="iUWQHkMu8339N5Hj9UHk-90">
          <mxGeometry relative="1" as="geometry" />
        </mxCell>
        <mxCell id="iUWQHkMu8339N5Hj9UHk-91" value="&lt;div&gt;&lt;b&gt;&amp;nbsp;Build LSTM Model with Attention Mechanism&lt;/b&gt;&lt;br&gt;&lt;/div&gt;" style="rounded=0;whiteSpace=wrap;html=1;fillColor=#d0cee2;strokeColor=#56517e;" vertex="1" parent="iUWQHkMu8339N5Hj9UHk-89">
          <mxGeometry y="80" width="190" height="40" as="geometry" />
        </mxCell>
        <mxCell id="iUWQHkMu8339N5Hj9UHk-117" style="edgeStyle=orthogonalEdgeStyle;rounded=0;orthogonalLoop=1;jettySize=auto;html=1;exitX=0.5;exitY=0;exitDx=0;exitDy=0;entryX=0.5;entryY=1;entryDx=0;entryDy=0;" edge="1" parent="iUWQHkMu8339N5Hj9UHk-89" source="iUWQHkMu8339N5Hj9UHk-92" target="iUWQHkMu8339N5Hj9UHk-91">
          <mxGeometry relative="1" as="geometry" />
        </mxCell>
        <mxCell id="iUWQHkMu8339N5Hj9UHk-92" value="&lt;div&gt;&lt;b&gt;Temporal Sequence Repetition (x10)&lt;/b&gt;&lt;br&gt;&lt;/div&gt;" style="rounded=0;whiteSpace=wrap;html=1;fillColor=#d0cee2;strokeColor=#56517e;" vertex="1" parent="iUWQHkMu8339N5Hj9UHk-89">
          <mxGeometry y="160" width="190" height="40" as="geometry" />
        </mxCell>
        <mxCell id="iUWQHkMu8339N5Hj9UHk-116" style="edgeStyle=orthogonalEdgeStyle;rounded=0;orthogonalLoop=1;jettySize=auto;html=1;exitX=0.5;exitY=0;exitDx=0;exitDy=0;entryX=0.5;entryY=1;entryDx=0;entryDy=0;" edge="1" parent="iUWQHkMu8339N5Hj9UHk-89" source="iUWQHkMu8339N5Hj9UHk-93" target="iUWQHkMu8339N5Hj9UHk-92">
          <mxGeometry relative="1" as="geometry" />
        </mxCell>
        <mxCell id="iUWQHkMu8339N5Hj9UHk-93" value="&lt;div&gt;&lt;div&gt;&lt;b&gt;&amp;nbsp;Stratified Train/Validation&amp;nbsp;&lt;br&gt;&lt;/b&gt;&lt;/div&gt;&lt;div&gt;&lt;b&gt;Split Using train_test_split&lt;/b&gt;&lt;/div&gt;&lt;/div&gt;" style="rounded=0;whiteSpace=wrap;html=1;fillColor=#d0cee2;strokeColor=#56517e;" vertex="1" parent="iUWQHkMu8339N5Hj9UHk-89">
          <mxGeometry y="240" width="190" height="40" as="geometry" />
        </mxCell>
        <mxCell id="iUWQHkMu8339N5Hj9UHk-115" style="edgeStyle=orthogonalEdgeStyle;rounded=0;orthogonalLoop=1;jettySize=auto;html=1;exitX=0.5;exitY=0;exitDx=0;exitDy=0;entryX=0.5;entryY=1;entryDx=0;entryDy=0;" edge="1" parent="iUWQHkMu8339N5Hj9UHk-89" source="iUWQHkMu8339N5Hj9UHk-94" target="iUWQHkMu8339N5Hj9UHk-93">
          <mxGeometry relative="1" as="geometry" />
        </mxCell>
        <mxCell id="iUWQHkMu8339N5Hj9UHk-94" value="&lt;div&gt;&lt;b&gt;Load Training Data from Folder&amp;nbsp;&lt;br&gt;&lt;/b&gt;&lt;/div&gt;&lt;div&gt;&lt;b&gt;1000 Images Per Label, Feature Extraction&lt;/b&gt;&lt;/div&gt;" style="rounded=0;whiteSpace=wrap;html=1;fillColor=#d0cee2;strokeColor=#56517e;" vertex="1" parent="iUWQHkMu8339N5Hj9UHk-89">
          <mxGeometry y="320" width="190" height="40" as="geometry" />
        </mxCell>
        <mxCell id="iUWQHkMu8339N5Hj9UHk-95" value="" style="group" vertex="1" connectable="0" parent="WIyWlLk6GJQsqaUBKTNV-1">
          <mxGeometry x="560" y="80" width="190" height="360" as="geometry" />
        </mxCell>
        <mxCell id="iUWQHkMu8339N5Hj9UHk-121" style="edgeStyle=orthogonalEdgeStyle;rounded=0;orthogonalLoop=1;jettySize=auto;html=1;exitX=0.5;exitY=1;exitDx=0;exitDy=0;entryX=0.5;entryY=0;entryDx=0;entryDy=0;" edge="1" parent="iUWQHkMu8339N5Hj9UHk-95" source="iUWQHkMu8339N5Hj9UHk-96" target="iUWQHkMu8339N5Hj9UHk-97">
          <mxGeometry relative="1" as="geometry" />
        </mxCell>
        <mxCell id="iUWQHkMu8339N5Hj9UHk-96" value="&lt;div&gt;&amp;nbsp;&lt;b&gt;Compile Model with Metrics&lt;br&gt;&lt;/b&gt;&lt;/div&gt;&lt;div&gt;&lt;b&gt;&amp;nbsp;→ Accuracy, Precision, Recall&lt;/b&gt;&lt;br&gt;&lt;/div&gt;" style="rounded=0;whiteSpace=wrap;html=1;fillColor=#d0cee2;strokeColor=#56517e;" vertex="1" parent="iUWQHkMu8339N5Hj9UHk-95">
          <mxGeometry width="190" height="40" as="geometry" />
        </mxCell>
        <mxCell id="iUWQHkMu8339N5Hj9UHk-122" style="edgeStyle=orthogonalEdgeStyle;rounded=0;orthogonalLoop=1;jettySize=auto;html=1;exitX=0.5;exitY=1;exitDx=0;exitDy=0;entryX=0.5;entryY=0;entryDx=0;entryDy=0;" edge="1" parent="iUWQHkMu8339N5Hj9UHk-95" source="iUWQHkMu8339N5Hj9UHk-97" target="iUWQHkMu8339N5Hj9UHk-98">
          <mxGeometry relative="1" as="geometry" />
        </mxCell>
        <mxCell id="iUWQHkMu8339N5Hj9UHk-97" value="&lt;div&gt;&lt;b&gt;Train Model (EarlyStopping &amp;amp; LR Scheduling)&lt;/b&gt;&lt;br&gt;&lt;/div&gt;" style="rounded=0;whiteSpace=wrap;html=1;fillColor=#d0cee2;strokeColor=#56517e;" vertex="1" parent="iUWQHkMu8339N5Hj9UHk-95">
          <mxGeometry y="80" width="190" height="40" as="geometry" />
        </mxCell>
        <mxCell id="iUWQHkMu8339N5Hj9UHk-123" style="edgeStyle=orthogonalEdgeStyle;rounded=0;orthogonalLoop=1;jettySize=auto;html=1;exitX=0.5;exitY=1;exitDx=0;exitDy=0;entryX=0.5;entryY=0;entryDx=0;entryDy=0;" edge="1" parent="iUWQHkMu8339N5Hj9UHk-95" source="iUWQHkMu8339N5Hj9UHk-98" target="iUWQHkMu8339N5Hj9UHk-99">
          <mxGeometry relative="1" as="geometry" />
        </mxCell>
        <mxCell id="iUWQHkMu8339N5Hj9UHk-98" value="&lt;div&gt;&lt;b&gt;Save Best Weights with Validation Monitoring&amp;nbsp;&lt;/b&gt;&lt;br&gt;&lt;/div&gt;" style="rounded=0;whiteSpace=wrap;html=1;fillColor=#d0cee2;strokeColor=#56517e;" vertex="1" parent="iUWQHkMu8339N5Hj9UHk-95">
          <mxGeometry y="160" width="190" height="40" as="geometry" />
        </mxCell>
        <mxCell id="iUWQHkMu8339N5Hj9UHk-124" style="edgeStyle=orthogonalEdgeStyle;rounded=0;orthogonalLoop=1;jettySize=auto;html=1;exitX=0.5;exitY=1;exitDx=0;exitDy=0;entryX=0.5;entryY=0;entryDx=0;entryDy=0;" edge="1" parent="iUWQHkMu8339N5Hj9UHk-95" source="iUWQHkMu8339N5Hj9UHk-99" target="iUWQHkMu8339N5Hj9UHk-100">
          <mxGeometry relative="1" as="geometry" />
        </mxCell>
        <mxCell id="iUWQHkMu8339N5Hj9UHk-99" value="&lt;div&gt;&lt;b&gt;Save Trained Model to Disk&lt;/b&gt;&lt;br&gt;&lt;/div&gt;" style="rounded=0;whiteSpace=wrap;html=1;fillColor=#d0cee2;strokeColor=#56517e;" vertex="1" parent="iUWQHkMu8339N5Hj9UHk-95">
          <mxGeometry y="240" width="190" height="40" as="geometry" />
        </mxCell>
        <mxCell id="iUWQHkMu8339N5Hj9UHk-100" value="&lt;div&gt;&lt;b&gt;Plot Accuracy &amp;amp; Loss Over Epochs&lt;/b&gt;&lt;br&gt;&lt;/div&gt;" style="rounded=0;whiteSpace=wrap;html=1;fillColor=#d0cee2;strokeColor=#56517e;" vertex="1" parent="iUWQHkMu8339N5Hj9UHk-95">
          <mxGeometry y="320" width="190" height="40" as="geometry" />
        </mxCell>
        <mxCell id="iUWQHkMu8339N5Hj9UHk-101" value="" style="group" vertex="1" connectable="0" parent="WIyWlLk6GJQsqaUBKTNV-1">
          <mxGeometry x="800" y="80" width="190" height="360" as="geometry" />
        </mxCell>
        <mxCell id="iUWQHkMu8339N5Hj9UHk-102" value="&lt;div&gt;&lt;b&gt;Load and Evaluate on Test Set&lt;br&gt;&lt;/b&gt;&lt;/div&gt;&lt;div&gt;&lt;b&gt;Landmark Extraction + Sequence Formatting&lt;/b&gt;&lt;br&gt;&lt;/div&gt;" style="rounded=0;whiteSpace=wrap;html=1;fillColor=#d0cee2;strokeColor=#56517e;" vertex="1" parent="iUWQHkMu8339N5Hj9UHk-101">
          <mxGeometry width="190" height="40" as="geometry" />
        </mxCell>
        <mxCell id="iUWQHkMu8339N5Hj9UHk-129" style="edgeStyle=orthogonalEdgeStyle;rounded=0;orthogonalLoop=1;jettySize=auto;html=1;exitX=0.5;exitY=0;exitDx=0;exitDy=0;entryX=0.5;entryY=1;entryDx=0;entryDy=0;" edge="1" parent="iUWQHkMu8339N5Hj9UHk-101" source="iUWQHkMu8339N5Hj9UHk-103" target="iUWQHkMu8339N5Hj9UHk-102">
          <mxGeometry relative="1" as="geometry" />
        </mxCell>
        <mxCell id="iUWQHkMu8339N5Hj9UHk-103" value="&lt;div&gt;&lt;b&gt;Evaluate Accuracy, Precision, etc&lt;/b&gt;&lt;br&gt;&lt;/div&gt;" style="rounded=0;whiteSpace=wrap;html=1;fillColor=#d0cee2;strokeColor=#56517e;" vertex="1" parent="iUWQHkMu8339N5Hj9UHk-101">
          <mxGeometry y="80" width="190" height="40" as="geometry" />
        </mxCell>
        <mxCell id="iUWQHkMu8339N5Hj9UHk-128" style="edgeStyle=orthogonalEdgeStyle;rounded=0;orthogonalLoop=1;jettySize=auto;html=1;exitX=0.5;exitY=0;exitDx=0;exitDy=0;entryX=0.5;entryY=1;entryDx=0;entryDy=0;" edge="1" parent="iUWQHkMu8339N5Hj9UHk-101" source="iUWQHkMu8339N5Hj9UHk-104" target="iUWQHkMu8339N5Hj9UHk-103">
          <mxGeometry relative="1" as="geometry" />
        </mxCell>
        <mxCell id="iUWQHkMu8339N5Hj9UHk-104" value="&lt;b&gt;Generate Classification Report &amp;amp; Confusion&amp;nbsp;&amp;nbsp;Matrix with Class Labels &amp;nbsp;&lt;/b&gt;" style="rounded=0;whiteSpace=wrap;html=1;fillColor=#d0cee2;strokeColor=#56517e;" vertex="1" parent="iUWQHkMu8339N5Hj9UHk-101">
          <mxGeometry y="160" width="190" height="40" as="geometry" />
        </mxCell>
        <mxCell id="iUWQHkMu8339N5Hj9UHk-127" style="edgeStyle=orthogonalEdgeStyle;rounded=0;orthogonalLoop=1;jettySize=auto;html=1;exitX=0.5;exitY=0;exitDx=0;exitDy=0;entryX=0.5;entryY=1;entryDx=0;entryDy=0;" edge="1" parent="iUWQHkMu8339N5Hj9UHk-101" source="iUWQHkMu8339N5Hj9UHk-105" target="iUWQHkMu8339N5Hj9UHk-104">
          <mxGeometry relative="1" as="geometry" />
        </mxCell>
        <mxCell id="iUWQHkMu8339N5Hj9UHk-105" value="&lt;div&gt;&lt;b&gt;&amp;nbsp;Visualize Confidence Distribution (Histogram&amp;nbsp;&amp;nbsp;&amp;amp; Per-Class Boxplot) &amp;nbsp;&lt;/b&gt;&lt;br&gt;&lt;/div&gt;" style="rounded=0;whiteSpace=wrap;html=1;fillColor=#d0cee2;strokeColor=#56517e;" vertex="1" parent="iUWQHkMu8339N5Hj9UHk-101">
          <mxGeometry y="240" width="190" height="40" as="geometry" />
        </mxCell>
        <mxCell id="iUWQHkMu8339N5Hj9UHk-126" style="edgeStyle=orthogonalEdgeStyle;rounded=0;orthogonalLoop=1;jettySize=auto;html=1;exitX=0.5;exitY=0;exitDx=0;exitDy=0;entryX=0.5;entryY=1;entryDx=0;entryDy=0;" edge="1" parent="iUWQHkMu8339N5Hj9UHk-101" source="iUWQHkMu8339N5Hj9UHk-106" target="iUWQHkMu8339N5Hj9UHk-105">
          <mxGeometry relative="1" as="geometry" />
        </mxCell>
        <mxCell id="iUWQHkMu8339N5Hj9UHk-106" value="&lt;div&gt;&lt;b&gt;Model Fully Trained and Evaluated&lt;/b&gt;&lt;br&gt;&lt;/div&gt;" style="rounded=0;whiteSpace=wrap;html=1;fillColor=#d0cee2;strokeColor=#56517e;" vertex="1" parent="iUWQHkMu8339N5Hj9UHk-101">
          <mxGeometry y="320" width="190" height="40" as="geometry" />
        </mxCell>
        <mxCell id="iUWQHkMu8339N5Hj9UHk-114" style="edgeStyle=orthogonalEdgeStyle;rounded=0;orthogonalLoop=1;jettySize=auto;html=1;exitX=1;exitY=0.5;exitDx=0;exitDy=0;entryX=0;entryY=0.5;entryDx=0;entryDy=0;" edge="1" parent="WIyWlLk6GJQsqaUBKTNV-1" source="iUWQHkMu8339N5Hj9UHk-87" target="iUWQHkMu8339N5Hj9UHk-94">
          <mxGeometry relative="1" as="geometry" />
        </mxCell>
        <mxCell id="iUWQHkMu8339N5Hj9UHk-120" style="edgeStyle=orthogonalEdgeStyle;rounded=0;orthogonalLoop=1;jettySize=auto;html=1;exitX=1;exitY=0.5;exitDx=0;exitDy=0;entryX=0;entryY=0.5;entryDx=0;entryDy=0;" edge="1" parent="WIyWlLk6GJQsqaUBKTNV-1" source="iUWQHkMu8339N5Hj9UHk-90" target="iUWQHkMu8339N5Hj9UHk-96">
          <mxGeometry relative="1" as="geometry" />
        </mxCell>
        <mxCell id="iUWQHkMu8339N5Hj9UHk-125" style="edgeStyle=orthogonalEdgeStyle;rounded=0;orthogonalLoop=1;jettySize=auto;html=1;exitX=1;exitY=0.5;exitDx=0;exitDy=0;entryX=0;entryY=0.5;entryDx=0;entryDy=0;" edge="1" parent="WIyWlLk6GJQsqaUBKTNV-1" source="iUWQHkMu8339N5Hj9UHk-100" target="iUWQHkMu8339N5Hj9UHk-106">
          <mxGeometry relative="1" as="geometry" />
        </mxCell>
        <mxCell id="iUWQHkMu8339N5Hj9UHk-130" value="&lt;span style=&quot;text-align: start; font-size: medium;&quot;&gt;&lt;b&gt;Comprehensive Workflow for Training an Attention-Based LSTM Model on ASL Landmark Sequences&lt;/b&gt;&lt;/span&gt;" style="text;html=1;align=center;verticalAlign=middle;whiteSpace=wrap;rounded=0;" vertex="1" parent="WIyWlLk6GJQsqaUBKTNV-1">
          <mxGeometry x="330" y="20" width="420" height="30" as="geometry" />
        </mxCell>
      </root>
    </mxGraphModel>
  </diagram>
</mxfile>
